<svg xmlns="http://www.w3.org/2000/svg" width="64" height="64" viewBox="0 0 64 64">
  <defs>
    <linearGradient id="probe" x1="0" y1="0" x2="0" y2="1">
      <stop offset="0" stop-color="#7744bb"/>
      <stop offset="1" stop-color="#4a2277"/>
    </linearGradient>
  </defs>
  <!-- 道帽 -->
  <path d="M18 18 L32 2 L46 18" fill="url(#probe)" stroke="#cc88ff" stroke-width="0.8"/>
  <!-- 頭髮 -->
  <ellipse cx="32" cy="16" rx="10" ry="8" fill="#332244"/>
  <!-- 臉 -->
  <ellipse cx="32" cy="18" rx="9" ry="8" fill="#eeccaa"/>
  <!-- 眼睛 — 深邃 -->
  <ellipse cx="27" cy="17" rx="2" ry="2.5" fill="#ffffff"/>
  <circle cx="27" cy="17" r="1.3" fill="#660044"/>
  <circle cx="27.3" cy="16.3" r="0.4" fill="#ffffff"/>
  <ellipse cx="37" cy="17" rx="2" ry="2.5" fill="#ffffff"/>
  <circle cx="37" cy="17" r="1.3" fill="#660044"/>
  <circle cx="37.3" cy="16.3" r="0.4" fill="#ffffff"/>
  <!-- 鬍鬚 -->
  <path d="M28 23 Q26 28 24 30" stroke="#554444" fill="none" stroke-width="0.5"/>
  <path d="M36 23 Q38 28 40 30" stroke="#554444" fill="none" stroke-width="0.5"/>
  <!-- 紫袍 -->
  <path d="M19 26 L19 50 L45 50 L45 26 Q32 22 19 26Z" fill="url(#probe)"/>
  <path d="M26 26 L32 34 L38 26" stroke="#cc88ff" fill="none" stroke-width="1.5"/>
  <!-- 太極符號 -->
  <circle cx="32" cy="39" r="5" fill="#ffffff" stroke="#333" stroke-width="0.8"/>
  <path d="M32 34 A5 5 0 0 1 32 44 A2.5 2.5 0 0 0 32 39 A2.5 2.5 0 0 1 32 34Z" fill="#333"/>
  <circle cx="32" cy="36.5" r="1" fill="#ffffff"/>
  <circle cx="32" cy="41.5" r="1" fill="#333"/>
  <!-- 手臂 -->
  <rect x="13" y="28" width="6" height="14" fill="url(#probe)" rx="2"/>
  <rect x="45" y="28" width="6" height="14" fill="url(#probe)" rx="2"/>
  <circle cx="16" cy="43" r="2.5" fill="#eeccaa"/>
  <circle cx="48" cy="43" r="2.5" fill="#eeccaa"/>
  <!-- 腿+靴 -->
  <rect x="22" y="50" width="7" height="9" fill="#4a2277" rx="2"/>
  <rect x="35" y="50" width="7" height="9" fill="#4a2277" rx="2"/>
  <rect x="20" y="57" width="10" height="5" fill="#332211" rx="2"/>
  <rect x="34" y="57" width="10" height="5" fill="#332211" rx="2"/>
</svg>
