<svg xmlns="http://www.w3.org/2000/svg" width="64" height="64" viewBox="0 0 64 64">
  <defs>
    <linearGradient id="grobe" x1="0" y1="0" x2="0" y2="1">
      <stop offset="0" stop-color="#44aa66"/>
      <stop offset="1" stop-color="#226644"/>
    </linearGradient>
  </defs>
  <!-- 頭髮 -->
  <ellipse cx="32" cy="14" rx="10" ry="9" fill="#554433"/>
  <!-- 臉 -->
  <ellipse cx="32" cy="17" rx="9" ry="9" fill="#ffdcb0"/>
  <!-- 眼睛 -->
  <ellipse cx="27" cy="16.5" rx="2" ry="2.5" fill="#ffffff"/>
  <circle cx="27" cy="16.5" r="1.2" fill="#333"/>
  <circle cx="27.3" cy="15.8" r="0.4" fill="#ffffff"/>
  <ellipse cx="37" cy="16.5" rx="2" ry="2.5" fill="#ffffff"/>
  <circle cx="37" cy="16.5" r="1.2" fill="#333"/>
  <circle cx="37.3" cy="15.8" r="0.4" fill="#ffffff"/>
  <!-- 笑臉 -->
  <path d="M28 22 Q32 25 36 22" stroke="#b07050" fill="none" stroke-width="0.7"/>
  <!-- 綠衫 -->
  <path d="M19 28 L19 50 L45 50 L45 28 Q32 24 19 28Z" fill="url(#grobe)"/>
  <path d="M26 28 L32 34 L38 28" stroke="#88ddaa" fill="none" stroke-width="1.2"/>
  <!-- 腰帶 -->
  <rect x="19" y="42" width="26" height="2.5" fill="#227744" rx="1"/>
  <!-- 手臂 -->
  <rect x="13" y="30" width="6" height="14" fill="url(#grobe)" rx="2"/>
  <rect x="45" y="30" width="6" height="14" fill="url(#grobe)" rx="2"/>
  <circle cx="16" cy="45" r="2.5" fill="#ffdcb0"/>
  <circle cx="48" cy="45" r="2.5" fill="#ffdcb0"/>
  <!-- 腿+靴 -->
  <rect x="22" y="50" width="7" height="9" fill="#226644" rx="2"/>
  <rect x="35" y="50" width="7" height="9" fill="#226644" rx="2"/>
  <rect x="20" y="57" width="10" height="5" fill="#332211" rx="2"/>
  <rect x="34" y="57" width="10" height="5" fill="#332211" rx="2"/>
</svg>
