<svg xmlns="http://www.w3.org/2000/svg" width="32" height="32" viewBox="0 0 32 32">
  <ellipse cx="16" cy="7" rx="6" ry="5" fill="#332244"/>
  <ellipse cx="16" cy="9" rx="5" ry="5" fill="#eeccaa"/>
  <ellipse cx="13.5" cy="8.5" rx="1" ry="1.3" fill="#fff"/>
  <circle cx="13.5" cy="8.5" r="0.6" fill="#604"/>
  <ellipse cx="18.5" cy="8.5" rx="1" ry="1.3" fill="#fff"/>
  <circle cx="18.5" cy="8.5" r="0.6" fill="#604"/>
  <path d="M14 12 Q16 13 18 12" stroke="#806050" fill="none" stroke-width="0.5"/>
  <path d="M10 14 L10 24 L22 24 L22 14 Q16 12 10 14Z" fill="#6633aa"/>
  <path d="M13 14 L16 18 L19 14" stroke="#cc88ff" fill="none" stroke-width="1"/>
  <!-- 太極符號 -->
  <circle cx="16" cy="20" r="3" fill="#fff" stroke="#333" stroke-width="0.5"/>
  <path d="M16 17 A3 3 0 0 1 16 23 A1.5 1.5 0 0 0 16 20 A1.5 1.5 0 0 1 16 17Z" fill="#333"/>
  <circle cx="16" cy="18.5" r="0.5" fill="#fff"/>
  <circle cx="16" cy="21.5" r="0.5" fill="#333"/>
  <rect x="7" y="15" width="3" height="7" fill="#6633aa" rx="1"/>
  <rect x="22" y="15" width="3" height="7" fill="#6633aa" rx="1"/>
  <circle cx="8.5" cy="22.5" r="1.5" fill="#eeccaa"/>
  <circle cx="23.5" cy="22.5" r="1.5" fill="#eeccaa"/>
  <rect x="11" y="24" width="4" height="5" fill="#4a2277" rx="1"/>
  <rect x="17" y="24" width="4" height="5" fill="#4a2277" rx="1"/>
  <rect x="10" y="28" width="5" height="3" fill="#332211" rx="1"/>
  <rect x="17" y="28" width="5" height="3" fill="#332211" rx="1"/>
  <!-- 帽子 -->
  <path d="M10 5 L16 0 L22 5" fill="#6633aa" stroke="#cc88ff" stroke-width="0.5"/>
</svg>
