<svg xmlns="http://www.w3.org/2000/svg" width="64" height="64" viewBox="0 0 64 64">
  <defs>
    <linearGradient id="wrobe" x1="0" y1="0" x2="0" y2="1">
      <stop offset="0" stop-color="#f0f0e0"/>
      <stop offset="1" stop-color="#d8d8c8"/>
    </linearGradient>
  </defs>
  <!-- 髮髻 -->
  <ellipse cx="32" cy="12" rx="10" ry="9" fill="#887766"/>
  <circle cx="32" cy="5" r="4" fill="#887766"/>
  <rect x="31" y="5" width="2" height="4" fill="#887766"/>
  <!-- 臉 -->
  <ellipse cx="32" cy="17" rx="9" ry="9" fill="#ffdcb0"/>
  <!-- 眼睛 -->
  <ellipse cx="27" cy="16.5" rx="2" ry="2.5" fill="#ffffff"/>
  <circle cx="27" cy="16.5" r="1.2" fill="#336633"/>
  <circle cx="27.3" cy="15.8" r="0.4" fill="#ffffff"/>
  <ellipse cx="37" cy="16.5" rx="2" ry="2.5" fill="#ffffff"/>
  <circle cx="37" cy="16.5" r="1.2" fill="#336633"/>
  <circle cx="37.3" cy="15.8" r="0.4" fill="#ffffff"/>
  <!-- 微笑 -->
  <path d="M28 22 Q32 25 36 22" stroke="#b07050" fill="none" stroke-width="0.7"/>
  <!-- 白袍 -->
  <path d="M19 28 L19 50 L45 50 L45 28 Q32 24 19 28Z" fill="url(#wrobe)"/>
  <path d="M26 28 L32 36 L38 28" stroke="#44aa66" fill="none" stroke-width="1.5"/>
  <!-- 紅十字 -->
  <rect x="29" y="36" width="6" height="10" fill="#ff4444" rx="0.5"/>
  <rect x="26" y="39" width="12" height="4" fill="#ff4444" rx="0.5"/>
  <!-- 腰帶 -->
  <rect x="19" y="43" width="26" height="2.5" fill="#44aa66" rx="1"/>
  <!-- 手臂 -->
  <rect x="13" y="30" width="6" height="14" fill="url(#wrobe)" rx="2"/>
  <rect x="45" y="30" width="6" height="14" fill="url(#wrobe)" rx="2"/>
  <circle cx="16" cy="45" r="2.5" fill="#ffdcb0"/>
  <circle cx="48" cy="45" r="2.5" fill="#ffdcb0"/>
  <!-- 葫蘆 -->
  <ellipse cx="50" cy="38" rx="3" ry="5" fill="#cc8833"/>
  <ellipse cx="50" cy="33" rx="2" ry="2.5" fill="#cc8833"/>
  <rect x="49" y="30" width="2" height="2" fill="#886633"/>
  <!-- 腿+靴 -->
  <rect x="22" y="50" width="7" height="9" fill="#ccccbb" rx="2"/>
  <rect x="35" y="50" width="7" height="9" fill="#ccccbb" rx="2"/>
  <rect x="20" y="57" width="10" height="5" fill="#443322" rx="2"/>
  <rect x="34" y="57" width="10" height="5" fill="#443322" rx="2"/>
</svg>
