<svg xmlns="http://www.w3.org/2000/svg" width="64" height="64" viewBox="0 0 64 64">
  <defs>
    <linearGradient id="armor" x1="0" y1="0" x2="0" y2="1">
      <stop offset="0" stop-color="#dd3333"/>
      <stop offset="1" stop-color="#991111"/>
    </linearGradient>
  </defs>
  <!-- 頭髮 -->
  <ellipse cx="32" cy="13" rx="10" ry="9" fill="#441111"/>
  <!-- 頭巾 -->
  <rect x="22" y="8" width="20" height="4" fill="#cc2222" rx="1"/>
  <rect x="42" y="7" width="8" height="3" fill="#cc2222" rx="1"/>
  <!-- 臉 -->
  <ellipse cx="32" cy="17" rx="9" ry="8" fill="#ffdcb0"/>
  <!-- 眼睛 — 銳利 -->
  <path d="M24 15 L30 15" stroke="#441111" stroke-width="1"/>
  <ellipse cx="27" cy="16.5" rx="2" ry="2.2" fill="#ffffff"/>
  <circle cx="27" cy="16.5" r="1.2" fill="#440000"/>
  <path d="M34 15 L40 15" stroke="#441111" stroke-width="1"/>
  <ellipse cx="37" cy="16.5" rx="2" ry="2.2" fill="#ffffff"/>
  <circle cx="37" cy="16.5" r="1.2" fill="#440000"/>
  <!-- 嚴肅表情 -->
  <path d="M29 22 L35 22" stroke="#a06040" stroke-width="0.7"/>
  <!-- 鎧甲 -->
  <path d="M19 26 L19 50 L45 50 L45 26 Q32 22 19 26Z" fill="url(#armor)"/>
  <path d="M26 26 L32 34 L38 26" stroke="#ffaa33" fill="none" stroke-width="1.5"/>
  <!-- 鎧甲紋路 -->
  <rect x="21" y="32" width="22" height="3" fill="#aa1111" rx="0.5"/>
  <rect x="21" y="37" width="22" height="3" fill="#aa1111" rx="0.5"/>
  <rect x="21" y="42" width="22" height="3" fill="#aa1111" rx="0.5"/>
  <!-- 腰帶 -->
  <rect x="19" y="46" width="26" height="3" fill="#ffaa33" rx="1"/>
  <!-- 手臂 -->
  <rect x="13" y="28" width="6" height="14" fill="url(#armor)" rx="2"/>
  <rect x="45" y="28" width="6" height="14" fill="url(#armor)" rx="2"/>
  <circle cx="16" cy="43" r="2.5" fill="#ffdcb0"/>
  <circle cx="48" cy="43" r="2.5" fill="#ffdcb0"/>
  <!-- 背劍 -->
  <rect x="48" y="16" width="2.5" height="28" fill="#aabbcc" rx="0.5"/>
  <rect x="46" y="43" width="7" height="3" fill="#886633" rx="0.5"/>
  <path d="M49 16 L49.25 12 L50 16" fill="#aabbcc"/>
  <!-- 腿+靴 -->
  <rect x="22" y="50" width="7" height="9" fill="#991111" rx="2"/>
  <rect x="35" y="50" width="7" height="9" fill="#991111" rx="2"/>
  <rect x="20" y="57" width="10" height="5" fill="#332211" rx="2"/>
  <rect x="34" y="57" width="10" height="5" fill="#332211" rx="2"/>
</svg>
