<svg xmlns="http://www.w3.org/2000/svg" width="32" height="32" viewBox="0 0 32 32">
  <!-- 頭髮 -->
  <ellipse cx="16" cy="7" rx="6" ry="5" fill="#887766"/>
  <!-- 臉 -->
  <ellipse cx="16" cy="9" rx="5" ry="5" fill="#ffdcb0"/>
  <!-- 眼睛 -->
  <ellipse cx="13.5" cy="8.5" rx="1" ry="1.3" fill="#fff"/>
  <circle cx="13.5" cy="8.5" r="0.6" fill="#363"/>
  <ellipse cx="18.5" cy="8.5" rx="1" ry="1.3" fill="#fff"/>
  <circle cx="18.5" cy="8.5" r="0.6" fill="#363"/>
  <!-- 微笑 -->
  <path d="M14 11.5 Q16 13 18 11.5" stroke="#a06040" fill="none" stroke-width="0.5"/>
  <!-- 白袍 -->
  <path d="M10 14 L10 24 L22 24 L22 14 Q16 12 10 14Z" fill="#eeeedd"/>
  <path d="M13 14 L16 18 L19 14" stroke="#44aa66" fill="none" stroke-width="1"/>
  <!-- 十字標記 -->
  <rect x="14.5" y="18" width="3" height="5" fill="#ff4444" rx="0.3"/>
  <rect x="13" y="19.5" width="6" height="2" fill="#ff4444" rx="0.3"/>
  <!-- 腰帶 -->
  <rect x="10" y="22" width="12" height="1.5" fill="#44aa66" rx="0.5"/>
  <!-- 手臂 -->
  <rect x="7" y="15" width="3" height="7" fill="#eeeedd" rx="1"/>
  <rect x="22" y="15" width="3" height="7" fill="#eeeedd" rx="1"/>
  <circle cx="8.5" cy="22.5" r="1.5" fill="#ffdcb0"/>
  <circle cx="23.5" cy="22.5" r="1.5" fill="#ffdcb0"/>
  <!-- 葫蘆 -->
  <ellipse cx="24" cy="20" rx="2" ry="3" fill="#cc8833"/>
  <ellipse cx="24" cy="17.5" rx="1.2" ry="1.5" fill="#cc8833"/>
  <!-- 腿 -->
  <rect x="11" y="24" width="4" height="5" fill="#ccccbb" rx="1"/>
  <rect x="17" y="24" width="4" height="5" fill="#ccccbb" rx="1"/>
  <rect x="10" y="28" width="5" height="3" fill="#443322" rx="1"/>
  <rect x="17" y="28" width="5" height="3" fill="#443322" rx="1"/>
</svg>
