<svg xmlns="http://www.w3.org/2000/svg" width="32" height="32" viewBox="0 0 32 32">
  <ellipse cx="16" cy="7" rx="6" ry="5" fill="#441111"/>
  <ellipse cx="16" cy="9" rx="5" ry="5" fill="#ffdcb0"/>
  <ellipse cx="13.5" cy="8.5" rx="1" ry="1.3" fill="#fff"/>
  <circle cx="13.5" cy="8.5" r="0.6" fill="#400"/>
  <ellipse cx="18.5" cy="8.5" rx="1" ry="1.3" fill="#fff"/>
  <circle cx="18.5" cy="8.5" r="0.6" fill="#400"/>
  <path d="M13.5 12 L18.5 12" stroke="#a06040" stroke-width="0.5"/>
  <path d="M10 14 L10 24 L22 24 L22 14 Q16 12 10 14Z" fill="#cc2222"/>
  <path d="M13 14 L16 18 L19 14" stroke="#ffaa33" fill="none" stroke-width="1"/>
  <!-- 鎧甲片 -->
  <rect x="11" y="16" width="10" height="2" fill="#aa1111" rx="0.3"/>
  <rect x="11" y="19" width="10" height="2" fill="#aa1111" rx="0.3"/>
  <rect x="10" y="22" width="12" height="1.5" fill="#ffaa33" rx="0.5"/>
  <rect x="7" y="15" width="3" height="7" fill="#cc2222" rx="1"/>
  <rect x="22" y="15" width="3" height="7" fill="#cc2222" rx="1"/>
  <circle cx="8.5" cy="22.5" r="1.5" fill="#ffdcb0"/>
  <circle cx="23.5" cy="22.5" r="1.5" fill="#ffdcb0"/>
  <!-- 劍 -->
  <rect x="24" y="10" width="1.5" height="14" fill="#aabbcc" rx="0.3"/>
  <rect x="23" y="23" width="4" height="1.5" fill="#886633" rx="0.3"/>
  <rect x="11" y="24" width="4" height="5" fill="#991111" rx="1"/>
  <rect x="17" y="24" width="4" height="5" fill="#991111" rx="1"/>
  <rect x="10" y="28" width="5" height="3" fill="#332211" rx="1"/>
  <rect x="17" y="28" width="5" height="3" fill="#332211" rx="1"/>
</svg>
