<svg xmlns="http://www.w3.org/2000/svg" width="64" height="64" viewBox="0 0 64 64">
  <defs>
    <linearGradient id="robe" x1="0" y1="0" x2="0" y2="1">
      <stop offset="0" stop-color="#3366bb"/>
      <stop offset="1" stop-color="#1a3366"/>
    </linearGradient>
    <linearGradient id="hair" x1="0" y1="0" x2="1" y2="1">
      <stop offset="0" stop-color="#222244"/>
      <stop offset="1" stop-color="#111133"/>
    </linearGradient>
  </defs>
  <!-- 頭髮 -->
  <ellipse cx="32" cy="14" rx="11" ry="10" fill="url(#hair)"/>
  <path d="M21 14 Q20 6 25 4 Q32 1 39 4 Q44 6 43 14" fill="url(#hair)"/>
  <!-- 臉 -->
  <ellipse cx="32" cy="17" rx="9" ry="9" fill="#ffdcb0"/>
  <!-- 眉毛 -->
  <path d="M25 14 Q27 12 29 14" stroke="#443322" fill="none" stroke-width="0.8"/>
  <path d="M35 14 Q37 12 39 14" stroke="#443322" fill="none" stroke-width="0.8"/>
  <!-- 眼睛 -->
  <ellipse cx="27" cy="16.5" rx="2.2" ry="2.8" fill="#ffffff"/>
  <circle cx="27" cy="16.5" r="1.3" fill="#224466"/>
  <circle cx="27.4" cy="15.8" r="0.4" fill="#ffffff"/>
  <ellipse cx="37" cy="16.5" rx="2.2" ry="2.8" fill="#ffffff"/>
  <circle cx="37" cy="16.5" r="1.3" fill="#224466"/>
  <circle cx="37.4" cy="15.8" r="0.4" fill="#ffffff"/>
  <!-- 鼻子 -->
  <path d="M31 19 Q32 20.5 33 19" stroke="#c0956a" fill="none" stroke-width="0.5"/>
  <!-- 嘴巴 -->
  <path d="M29 22 Q32 24 35 22" stroke="#b07050" fill="none" stroke-width="0.7"/>
  <!-- 道袍 -->
  <path d="M19 28 L19 50 L45 50 L45 28 Q32 24 19 28Z" fill="url(#robe)"/>
  <!-- 衣領 V 形 -->
  <path d="M26 28 L32 36 L38 28" stroke="#ffcc44" fill="none" stroke-width="1.5"/>
  <!-- 衣紋 -->
  <path d="M28 30 L28 50" stroke="#4488ee" stroke-width="0.4" opacity="0.5"/>
  <path d="M36 30 L36 50" stroke="#4488ee" stroke-width="0.4" opacity="0.5"/>
  <!-- 腰帶 -->
  <rect x="19" y="40" width="26" height="3" fill="#ffcc44" rx="1"/>
  <circle cx="32" cy="41.5" r="1.5" fill="#ffaa22"/>
  <!-- 手臂 -->
  <rect x="13" y="30" width="6" height="14" fill="url(#robe)" rx="2"/>
  <rect x="45" y="30" width="6" height="14" fill="url(#robe)" rx="2"/>
  <!-- 手 -->
  <circle cx="16" cy="45" r="2.5" fill="#ffdcb0"/>
  <circle cx="48" cy="45" r="2.5" fill="#ffdcb0"/>
  <!-- 腿 -->
  <rect x="22" y="50" width="7" height="9" fill="#1a3366" rx="2"/>
  <rect x="35" y="50" width="7" height="9" fill="#1a3366" rx="2"/>
  <!-- 靴子 -->
  <rect x="20" y="57" width="10" height="5" fill="#332211" rx="2"/>
  <rect x="34" y="57" width="10" height="5" fill="#332211" rx="2"/>
  <!-- 頭飾金冠 -->
  <rect x="27" y="4" width="10" height="3" fill="#ffcc44" rx="1"/>
  <path d="M29 4 L32 1 L35 4" fill="#ffcc44"/>
  <circle cx="32" cy="3" r="1" fill="#ff8822"/>
</svg>
